<svg xmlns="http://www.w3.org/2000/svg" width="1000" height="1000" viewBox="0 0 1000 1000"><defs><marker id="29484e" markerWidth="3" markerHeight="3" refX="2.6" refY="1.5" orient="auto"><path d="M0 0L3 1.5L0 3Z" fill="#29484e"/></marker><marker id="3d8d89" markerWidth="3" markerHeight="3" refX="2.6" refY="1.5" orient="auto"><path d="M0 0L3 1.5L0 3Z" fill="#3d8d89"/></marker><marker id="dca43f" markerWidth="3" markerHeight="3" refX="2.6" refY="1.5" orient="auto"><path d="M0 0L3 1.5L0 3Z" fill="#dca43f"/></marker><marker id="c56458" markerWidth="3" markerHeight="3" refX="2.6" refY="1.5" orient="auto"><path d="M0 0L3 1.5L0 3Z" fill="#c56458"/></marker><marker id="5b92b4" markerWidth="3" markerHeight="3" refX="2.6" refY="1.5" orient="auto"><path d="M0 0L3 1.5L0 3Z" fill="#5b92b4"/></marker><marker id="987359" markerWidth="3" markerHeight="3" refX="2.6" refY="1.5" orient="auto"><path d="M0 0L3 1.5L0 3Z" fill="#987359"/></marker><marker id="f5f0e4" markerWidth="3" markerHeight="3" refX="2.6" refY="1.5" orient="auto"><path d="M0 0L3 1.5L0 3Z" fill="#f5f0e4"/></marker><marker id="5b8955" markerWidth="3" markerHeight="3" refX="2.6" refY="1.5" orient="auto"><path d="M0 0L3 1.5L0 3Z" fill="#5b8955"/></marker></defs><rect x="0" y="0" width="1000" height="1000" rx="12" fill="#f5f0e4" /><g transform="translate(235 460) scale(0.7)"><path d="M0 60C-180 -50 -90 -170 0 -80C90 -170 180 -50 0 60" fill="#c56458" stroke="none" stroke-width="5" stroke-linecap="round" stroke-linejoin="round" /></g><g transform="translate(765 460) scale(0.7)"><path d="M0 60C-180 -50 -90 -170 0 -80C90 -170 180 -50 0 60" fill="#c56458" stroke="none" stroke-width="5" stroke-linecap="round" stroke-linejoin="round" /></g><path d="M355 500H650" fill="none" stroke="#3d8d89" stroke-width="10" stroke-linecap="round" stroke-linejoin="round" stroke-dasharray="25 25"/></svg>