<svg xmlns="http://www.w3.org/2000/svg" width="1000" height="1000" viewBox="0 0 1000 1000"><rect x="0" y="0" width="1000" height="1000" fill="#fffaf0" stroke="#263e50" stroke-width="3" /><g data-group="0" data-count="4"><circle cx="180" cy="350" r="17" fill="#148d87" stroke="#263e50" stroke-width="2" data-object="marble"/><circle cx="255" cy="350" r="17" fill="#148d87" stroke="#263e50" stroke-width="2" data-object="marble"/><circle cx="330" cy="350" r="17" fill="#148d87" stroke="#263e50" stroke-width="2" data-object="marble"/><circle cx="405" cy="350" r="17" fill="#148d87" stroke="#263e50" stroke-width="2" data-object="marble"/></g><g data-group="1" data-count="4"><circle cx="180" cy="425" r="17" fill="#148d87" stroke="#263e50" stroke-width="2" data-object="marble"/><circle cx="255" cy="425" r="17" fill="#148d87" stroke="#263e50" stroke-width="2" data-object="marble"/><circle cx="330" cy="425" r="17" fill="#148d87" stroke="#263e50" stroke-width="2" data-object="marble"/><circle cx="405" cy="425" r="17" fill="#148d87" stroke="#263e50" stroke-width="2" data-object="marble"/></g><g data-group="2" data-count="4"><circle cx="180" cy="500" r="17" fill="#148d87" stroke="#263e50" stroke-width="2" data-object="marble"/><circle cx="255" cy="500" r="17" fill="#148d87" stroke="#263e50" stroke-width="2" data-object="marble"/><circle cx="330" cy="500" r="17" fill="#148d87" stroke="#263e50" stroke-width="2" data-object="marble"/><circle cx="405" cy="500" r="17" fill="#148d87" stroke="#263e50" stroke-width="2" data-object="marble"/></g><g data-group="0" data-count="3"><circle cx="650" cy="315" r="17" fill="#148d87" stroke="#263e50" stroke-width="2" data-object="marble"/><circle cx="725" cy="315" r="17" fill="#148d87" stroke="#263e50" stroke-width="2" data-object="marble"/><circle cx="800" cy="315" r="17" fill="#148d87" stroke="#263e50" stroke-width="2" data-object="marble"/></g><g data-group="1" data-count="3"><circle cx="650" cy="390" r="17" fill="#148d87" stroke="#263e50" stroke-width="2" data-object="marble"/><circle cx="725" cy="390" r="17" fill="#148d87" stroke="#263e50" stroke-width="2" data-object="marble"/><circle cx="800" cy="390" r="17" fill="#148d87" stroke="#263e50" stroke-width="2" data-object="marble"/></g><g data-group="2" data-count="3"><circle cx="650" cy="465" r="17" fill="#148d87" stroke="#263e50" stroke-width="2" data-object="marble"/><circle cx="725" cy="465" r="17" fill="#148d87" stroke="#263e50" stroke-width="2" data-object="marble"/><circle cx="800" cy="465" r="17" fill="#148d87" stroke="#263e50" stroke-width="2" data-object="marble"/></g><g data-group="3" data-count="3"><circle cx="650" cy="540" r="17" fill="#148d87" stroke="#263e50" stroke-width="2" data-object="marble"/><circle cx="725" cy="540" r="17" fill="#148d87" stroke="#263e50" stroke-width="2" data-object="marble"/><circle cx="800" cy="540" r="17" fill="#148d87" stroke="#263e50" stroke-width="2" data-object="marble"/></g></svg>