<svg xmlns="http://www.w3.org/2000/svg" width="1000" height="1000" viewBox="0 0 1000 1000"><defs><marker id="tip" viewBox="0 0 10 10" refX="9" refY="5" markerWidth="3" markerHeight="3" orient="auto"><path d="M0 0L10 5L0 10Z" fill="#bd8931"/></marker></defs><rect x="0" y="0" width="1000" height="1000" fill="#f7f0df"/><g transform="translate(160 500)"><path d="M0 65V-60" stroke="#527b45" stroke-width="12"/><path d="M0 5Q-100 5 -70 -65Q-5 -60 0 5M0 -20Q90 -90 80 -5Q35 25 0 -20" fill="#789556"/></g><g transform="translate(500 275)"><ellipse rx="65" ry="40" fill="#a9947d"/><circle cx="55" cy="-20" r="30" fill="#a9947d"/><ellipse cx="55" cy="-65" rx="10" ry="40" fill="#a9947d"/><ellipse cx="78" cy="-60" rx="10" ry="37" fill="#a9947d"/><circle cx="-65" cy="-5" r="18" fill="#d7cdb7"/><circle cx="65" cy="-25" r="4" fill="#353b32"/></g><g transform="translate(500 735)"><ellipse rx="57" ry="30" fill="#87908b"/><circle cx="48" cy="-10" r="24" fill="#87908b"/><circle cx="42" cy="-33" r="16" fill="#87908b"/><circle cx="58" cy="-14" r="4" fill="#303a34"/><path d="M-55 5Q-110 45 -100 -12" fill="none" stroke="#87908b" stroke-width="7"/></g><g transform="translate(850 500)"><path d="M-20 30L-85 90L-35 100L25 35" fill="#ac643e"/><ellipse rx="40" ry="65" fill="#79553e"/><circle cx="30" cy="-60" r="29" fill="#79553e"/><path d="M50 -65L85 -53L53 -43Z" fill="#bda04e"/><circle cx="36" cy="-65" r="5" fill="#282e29"/></g><path d="M240 445L390 300" stroke="#bd8931" stroke-width="9" fill="none" marker-end="url(#tip)"/><path d="M240 555L385 715" stroke="#bd8931" stroke-width="9" fill="none" marker-end="url(#tip)"/><path d="M600 315L795 420" stroke="#bd8931" stroke-width="9" fill="none" marker-end="url(#tip)"/><path d="M585 705L790 580" stroke="#bd8931" stroke-width="9" fill="none" marker-end="url(#tip)"/></svg>