<svg xmlns="http://www.w3.org/2000/svg" width="1000" height="1000" viewBox="0 0 1000 1000"><defs><marker id="29484e" markerWidth="3" markerHeight="3" refX="2.6" refY="1.5" orient="auto"><path d="M0 0L3 1.5L0 3Z" fill="#29484e"/></marker><marker id="3d8d89" markerWidth="3" markerHeight="3" refX="2.6" refY="1.5" orient="auto"><path d="M0 0L3 1.5L0 3Z" fill="#3d8d89"/></marker><marker id="dca43f" markerWidth="3" markerHeight="3" refX="2.6" refY="1.5" orient="auto"><path d="M0 0L3 1.5L0 3Z" fill="#dca43f"/></marker><marker id="c56458" markerWidth="3" markerHeight="3" refX="2.6" refY="1.5" orient="auto"><path d="M0 0L3 1.5L0 3Z" fill="#c56458"/></marker><marker id="5b92b4" markerWidth="3" markerHeight="3" refX="2.6" refY="1.5" orient="auto"><path d="M0 0L3 1.5L0 3Z" fill="#5b92b4"/></marker><marker id="987359" markerWidth="3" markerHeight="3" refX="2.6" refY="1.5" orient="auto"><path d="M0 0L3 1.5L0 3Z" fill="#987359"/></marker><marker id="f5f0e4" markerWidth="3" markerHeight="3" refX="2.6" refY="1.5" orient="auto"><path d="M0 0L3 1.5L0 3Z" fill="#f5f0e4"/></marker><marker id="5b8955" markerWidth="3" markerHeight="3" refX="2.6" refY="1.5" orient="auto"><path d="M0 0L3 1.5L0 3Z" fill="#5b8955"/></marker></defs><rect x="0" y="0" width="1000" height="1000" rx="12" fill="#f5f0e4" /><rect x="100" y="210" width="350" height="580" rx="12" fill="none" stroke="#29484e" stroke-width="8"/><rect x="550" y="210" width="350" height="580" rx="12" fill="none" stroke="#29484e" stroke-width="8"/><g data-side="before"><circle cx="249" cy="390" r="32" fill="#c56458" data-atom="red" /><circle cx="301" cy="390" r="32" fill="#c56458" data-atom="red" /><circle cx="249" cy="640" r="32" fill="#5b92b4" data-atom="blue" /><circle cx="301" cy="640" r="32" fill="#5b92b4" data-atom="blue" /></g><g data-side="after"><circle cx="699" cy="350" r="32" fill="#c56458" data-atom="red" /><circle cx="751" cy="350" r="32" fill="#5b92b4" data-atom="blue" /><circle cx="699" cy="650" r="32" fill="#c56458" data-atom="red" /><circle cx="751" cy="650" r="32" fill="#5b92b4" data-atom="blue" /></g></svg>