<svg xmlns="http://www.w3.org/2000/svg" width="1000" height="1000" viewBox="0 0 1000 1000"><rect width="1000" height="1000" fill="#fffaf0"/><rect x="90" y="90" width="820" height="200" rx="18" fill="#fff" stroke="#203849" stroke-width="4"/><circle cx="245" cy="190" r="44" fill="#2465b4" stroke="#203849" stroke-width="4" data-counter="blue"/><circle cx="415" cy="190" r="44" fill="#2465b4" stroke="#203849" stroke-width="4" data-counter="blue"/><circle cx="585" cy="190" r="44" fill="#2465b4" stroke="#203849" stroke-width="4" data-counter="blue"/><circle cx="755" cy="190" r="44" fill="#d64640" stroke="#203849" stroke-width="4" data-counter="red"/><rect x="90" y="390" width="820" height="510" rx="18" fill="#fff" stroke="#203849" stroke-width="4"/><circle cx="210" cy="480" r="32" fill="#2465b4" stroke="#203849" stroke-width="4" data-counter="blue"/><circle cx="355" cy="480" r="32" fill="#d64640" stroke="#203849" stroke-width="4" data-counter="red"/><circle cx="500" cy="480" r="32" fill="#2465b4" stroke="#203849" stroke-width="4" data-counter="blue"/><circle cx="645" cy="480" r="32" fill="#2465b4" stroke="#203849" stroke-width="4" data-counter="blue"/><circle cx="790" cy="480" r="32" fill="#d64640" stroke="#203849" stroke-width="4" data-counter="red"/><circle cx="210" cy="585" r="32" fill="#2465b4" stroke="#203849" stroke-width="4" data-counter="blue"/><circle cx="355" cy="585" r="32" fill="#d64640" stroke="#203849" stroke-width="4" data-counter="red"/><circle cx="500" cy="585" r="32" fill="#2465b4" stroke="#203849" stroke-width="4" data-counter="blue"/><circle cx="645" cy="585" r="32" fill="#2465b4" stroke="#203849" stroke-width="4" data-counter="blue"/><circle cx="790" cy="585" r="32" fill="#d64640" stroke="#203849" stroke-width="4" data-counter="red"/><circle cx="210" cy="690" r="32" fill="#2465b4" stroke="#203849" stroke-width="4" data-counter="blue"/><circle cx="355" cy="690" r="32" fill="#2465b4" stroke="#203849" stroke-width="4" data-counter="blue"/><circle cx="500" cy="690" r="32" fill="#d64640" stroke="#203849" stroke-width="4" data-counter="red"/><circle cx="645" cy="690" r="32" fill="#2465b4" stroke="#203849" stroke-width="4" data-counter="blue"/><circle cx="790" cy="690" r="32" fill="#2465b4" stroke="#203849" stroke-width="4" data-counter="blue"/><circle cx="210" cy="795" r="32" fill="#2465b4" stroke="#203849" stroke-width="4" data-counter="blue"/><circle cx="355" cy="795" r="32" fill="#d64640" stroke="#203849" stroke-width="4" data-counter="red"/><circle cx="500" cy="795" r="32" fill="#2465b4" stroke="#203849" stroke-width="4" data-counter="blue"/><circle cx="645" cy="795" r="32" fill="#d64640" stroke="#203849" stroke-width="4" data-counter="red"/><circle cx="790" cy="795" r="32" fill="#2465b4" stroke="#203849" stroke-width="4" data-counter="blue"/></svg>