<svg xmlns="http://www.w3.org/2000/svg" width="1000" height="1000" viewBox="0 0 1000 1000"><rect x="0" y="0" width="1000" height="1000" fill="#f7f0df"/><g data-cube-count="36"><polygon data-cell="0,0,1" data-face="top" points="410,172 459,196.5 410,221 361,196.5" fill="#99c5bf" stroke="#f7f0df" stroke-width="3"/><polygon data-cell="1,0,1" data-face="top" points="459,196.5 508,221 459,245.5 410,221" fill="#99c5bf" stroke="#f7f0df" stroke-width="3"/><polygon data-cell="0,1,1" data-face="top" points="361,196.5 410,221 361,245.5 312,221" fill="#99c5bf" stroke="#f7f0df" stroke-width="3"/><polygon data-cell="0,2,0" data-face="left" points="263,343.5 312,368 312,319 263,294.5" fill="#609f9c" stroke="#f7f0df" stroke-width="3"/><polygon data-cell="2,0,1" data-face="top" points="508,221 557,245.5 508,270 459,245.5" fill="#99c5bf" stroke="#f7f0df" stroke-width="3"/><polygon data-cell="1,1,1" data-face="top" points="410,221 459,245.5 410,270 361,245.5" fill="#99c5bf" stroke="#f7f0df" stroke-width="3"/><polygon data-cell="0,2,1" data-face="top" points="312,221 361,245.5 312,270 263,245.5" fill="#99c5bf" stroke="#f7f0df" stroke-width="3"/><polygon data-cell="0,2,1" data-face="left" points="263,294.5 312,319 312,270 263,245.5" fill="#609f9c" stroke="#f7f0df" stroke-width="3"/><polygon data-cell="1,2,0" data-face="left" points="312,368 361,392.5 361,343.5 312,319" fill="#609f9c" stroke="#f7f0df" stroke-width="3"/><polygon data-cell="3,0,1" data-face="top" points="557,245.5 606,270 557,294.5 508,270" fill="#99c5bf" stroke="#f7f0df" stroke-width="3"/><polygon data-cell="2,1,1" data-face="top" points="459,245.5 508,270 459,294.5 410,270" fill="#99c5bf" stroke="#f7f0df" stroke-width="3"/><polygon data-cell="1,2,1" data-face="top" points="361,245.5 410,270 361,294.5 312,270" fill="#99c5bf" stroke="#f7f0df" stroke-width="3"/><polygon data-cell="1,2,1" data-face="left" points="312,319 361,343.5 361,294.5 312,270" fill="#609f9c" stroke="#f7f0df" stroke-width="3"/><polygon data-cell="2,2,0" data-face="left" points="361,392.5 410,417 410,368 361,343.5" fill="#609f9c" stroke="#f7f0df" stroke-width="3"/><polygon data-cell="4,0,1" data-face="top" points="606,270 655,294.5 606,319 557,294.5" fill="#99c5bf" stroke="#f7f0df" stroke-width="3"/><polygon data-cell="3,1,1" data-face="top" points="508,270 557,294.5 508,319 459,294.5" fill="#99c5bf" stroke="#f7f0df" stroke-width="3"/><polygon data-cell="2,2,1" data-face="top" points="410,270 459,294.5 410,319 361,294.5" fill="#99c5bf" stroke="#f7f0df" stroke-width="3"/><polygon data-cell="2,2,1" data-face="left" points="361,343.5 410,368 410,319 361,294.5" fill="#609f9c" stroke="#f7f0df" stroke-width="3"/><polygon data-cell="5,0,0" data-face="right" points="704,417 655,441.5 655,392.5 704,368" fill="#397e80" stroke="#f7f0df" stroke-width="3"/><polygon data-cell="3,2,0" data-face="left" points="410,417 459,441.5 459,392.5 410,368" fill="#609f9c" stroke="#f7f0df" stroke-width="3"/><polygon data-cell="5,0,1" data-face="top" points="655,294.5 704,319 655,343.5 606,319" fill="#99c5bf" stroke="#f7f0df" stroke-width="3"/><polygon data-cell="5,0,1" data-face="right" points="704,368 655,392.5 655,343.5 704,319" fill="#397e80" stroke="#f7f0df" stroke-width="3"/><polygon data-cell="4,1,1" data-face="top" points="557,294.5 606,319 557,343.5 508,319" fill="#99c5bf" stroke="#f7f0df" stroke-width="3"/><polygon data-cell="3,2,1" data-face="top" points="459,294.5 508,319 459,343.5 410,319" fill="#99c5bf" stroke="#f7f0df" stroke-width="3"/><polygon data-cell="3,2,1" data-face="left" points="410,368 459,392.5 459,343.5 410,319" fill="#609f9c" stroke="#f7f0df" stroke-width="3"/><polygon data-cell="5,1,0" data-face="right" points="655,441.5 606,466 606,417 655,392.5" fill="#397e80" stroke="#f7f0df" stroke-width="3"/><polygon data-cell="4,2,0" data-face="left" points="459,441.5 508,466 508,417 459,392.5" fill="#609f9c" stroke="#f7f0df" stroke-width="3"/><polygon data-cell="5,1,1" data-face="top" points="606,319 655,343.5 606,368 557,343.5" fill="#99c5bf" stroke="#f7f0df" stroke-width="3"/><polygon data-cell="5,1,1" data-face="right" points="655,392.5 606,417 606,368 655,343.5" fill="#397e80" stroke="#f7f0df" stroke-width="3"/><polygon data-cell="4,2,1" data-face="top" points="508,319 557,343.5 508,368 459,343.5" fill="#99c5bf" stroke="#f7f0df" stroke-width="3"/><polygon data-cell="4,2,1" data-face="left" points="459,392.5 508,417 508,368 459,343.5" fill="#609f9c" stroke="#f7f0df" stroke-width="3"/><polygon data-cell="5,2,0" data-face="right" points="606,466 557,490.5 557,441.5 606,417" fill="#397e80" stroke="#f7f0df" stroke-width="3"/><polygon data-cell="5,2,0" data-face="left" points="508,466 557,490.5 557,441.5 508,417" fill="#609f9c" stroke="#f7f0df" stroke-width="3"/><polygon data-cell="5,2,1" data-face="top" points="557,343.5 606,368 557,392.5 508,368" fill="#99c5bf" stroke="#f7f0df" stroke-width="3"/><polygon data-cell="5,2,1" data-face="right" points="606,417 557,441.5 557,392.5 606,368" fill="#397e80" stroke="#f7f0df" stroke-width="3"/><polygon data-cell="5,2,1" data-face="left" points="508,417 557,441.5 557,392.5 508,368" fill="#609f9c" stroke="#f7f0df" stroke-width="3"/></g><g data-cube-count="36"><polygon data-cell="0,0,1" data-face="top" points="310,542 359,566.5 310,591 261,566.5" fill="#99c5bf" stroke="#f7f0df" stroke-width="3"/><polygon data-cell="0,1,0" data-face="left" points="212,689 261,713.5 261,664.5 212,640" fill="#609f9c" stroke="#f7f0df" stroke-width="3"/><polygon data-cell="1,0,1" data-face="top" points="359,566.5 408,591 359,615.5 310,591" fill="#99c5bf" stroke="#f7f0df" stroke-width="3"/><polygon data-cell="0,1,1" data-face="top" points="261,566.5 310,591 261,615.5 212,591" fill="#99c5bf" stroke="#f7f0df" stroke-width="3"/><polygon data-cell="0,1,1" data-face="left" points="212,640 261,664.5 261,615.5 212,591" fill="#609f9c" stroke="#f7f0df" stroke-width="3"/><polygon data-cell="1,1,0" data-face="left" points="261,713.5 310,738 310,689 261,664.5" fill="#609f9c" stroke="#f7f0df" stroke-width="3"/><polygon data-cell="2,0,1" data-face="top" points="408,591 457,615.5 408,640 359,615.5" fill="#99c5bf" stroke="#f7f0df" stroke-width="3"/><polygon data-cell="1,1,1" data-face="top" points="310,591 359,615.5 310,640 261,615.5" fill="#99c5bf" stroke="#f7f0df" stroke-width="3"/><polygon data-cell="1,1,1" data-face="left" points="261,664.5 310,689 310,640 261,615.5" fill="#609f9c" stroke="#f7f0df" stroke-width="3"/><polygon data-cell="2,1,0" data-face="left" points="310,738 359,762.5 359,713.5 310,689" fill="#609f9c" stroke="#f7f0df" stroke-width="3"/><polygon data-cell="3,0,1" data-face="top" points="457,615.5 506,640 457,664.5 408,640" fill="#99c5bf" stroke="#f7f0df" stroke-width="3"/><polygon data-cell="2,1,1" data-face="top" points="359,615.5 408,640 359,664.5 310,640" fill="#99c5bf" stroke="#f7f0df" stroke-width="3"/><polygon data-cell="2,1,1" data-face="left" points="310,689 359,713.5 359,664.5 310,640" fill="#609f9c" stroke="#f7f0df" stroke-width="3"/><polygon data-cell="3,1,0" data-face="left" points="359,762.5 408,787 408,738 359,713.5" fill="#609f9c" stroke="#f7f0df" stroke-width="3"/><polygon data-cell="4,0,1" data-face="top" points="506,640 555,664.5 506,689 457,664.5" fill="#99c5bf" stroke="#f7f0df" stroke-width="3"/><polygon data-cell="3,1,1" data-face="top" points="408,640 457,664.5 408,689 359,664.5" fill="#99c5bf" stroke="#f7f0df" stroke-width="3"/><polygon data-cell="3,1,1" data-face="left" points="359,713.5 408,738 408,689 359,664.5" fill="#609f9c" stroke="#f7f0df" stroke-width="3"/><polygon data-cell="4,1,0" data-face="left" points="408,787 457,811.5 457,762.5 408,738" fill="#609f9c" stroke="#f7f0df" stroke-width="3"/><polygon data-cell="5,0,1" data-face="top" points="555,664.5 604,689 555,713.5 506,689" fill="#99c5bf" stroke="#f7f0df" stroke-width="3"/><polygon data-cell="4,1,1" data-face="top" points="457,664.5 506,689 457,713.5 408,689" fill="#99c5bf" stroke="#f7f0df" stroke-width="3"/><polygon data-cell="4,1,1" data-face="left" points="408,738 457,762.5 457,713.5 408,689" fill="#609f9c" stroke="#f7f0df" stroke-width="3"/><polygon data-cell="5,1,0" data-face="left" points="457,811.5 506,836 506,787 457,762.5" fill="#609f9c" stroke="#f7f0df" stroke-width="3"/><polygon data-cell="6,0,1" data-face="top" points="604,689 653,713.5 604,738 555,713.5" fill="#99c5bf" stroke="#f7f0df" stroke-width="3"/><polygon data-cell="5,1,1" data-face="top" points="506,689 555,713.5 506,738 457,713.5" fill="#99c5bf" stroke="#f7f0df" stroke-width="3"/><polygon data-cell="5,1,1" data-face="left" points="457,762.5 506,787 506,738 457,713.5" fill="#609f9c" stroke="#f7f0df" stroke-width="3"/><polygon data-cell="6,1,0" data-face="left" points="506,836 555,860.5 555,811.5 506,787" fill="#609f9c" stroke="#f7f0df" stroke-width="3"/><polygon data-cell="7,0,1" data-face="top" points="653,713.5 702,738 653,762.5 604,738" fill="#99c5bf" stroke="#f7f0df" stroke-width="3"/><polygon data-cell="6,1,1" data-face="top" points="555,713.5 604,738 555,762.5 506,738" fill="#99c5bf" stroke="#f7f0df" stroke-width="3"/><polygon data-cell="6,1,1" data-face="left" points="506,787 555,811.5 555,762.5 506,738" fill="#609f9c" stroke="#f7f0df" stroke-width="3"/><polygon data-cell="8,0,0" data-face="right" points="751,860.5 702,885 702,836 751,811.5" fill="#397e80" stroke="#f7f0df" stroke-width="3"/><polygon data-cell="7,1,0" data-face="left" points="555,860.5 604,885 604,836 555,811.5" fill="#609f9c" stroke="#f7f0df" stroke-width="3"/><polygon data-cell="8,0,1" data-face="top" points="702,738 751,762.5 702,787 653,762.5" fill="#99c5bf" stroke="#f7f0df" stroke-width="3"/><polygon data-cell="8,0,1" data-face="right" points="751,811.5 702,836 702,787 751,762.5" fill="#397e80" stroke="#f7f0df" stroke-width="3"/><polygon data-cell="7,1,1" data-face="top" points="604,738 653,762.5 604,787 555,762.5" fill="#99c5bf" stroke="#f7f0df" stroke-width="3"/><polygon data-cell="7,1,1" data-face="left" points="555,811.5 604,836 604,787 555,762.5" fill="#609f9c" stroke="#f7f0df" stroke-width="3"/><polygon data-cell="8,1,0" data-face="right" points="702,885 653,909.5 653,860.5 702,836" fill="#397e80" stroke="#f7f0df" stroke-width="3"/><polygon data-cell="8,1,0" data-face="left" points="604,885 653,909.5 653,860.5 604,836" fill="#609f9c" stroke="#f7f0df" stroke-width="3"/><polygon data-cell="8,1,1" data-face="top" points="653,762.5 702,787 653,811.5 604,787" fill="#99c5bf" stroke="#f7f0df" stroke-width="3"/><polygon data-cell="8,1,1" data-face="right" points="702,836 653,860.5 653,811.5 702,787" fill="#397e80" stroke="#f7f0df" stroke-width="3"/><polygon data-cell="8,1,1" data-face="left" points="604,836 653,860.5 653,811.5 604,787" fill="#609f9c" stroke="#f7f0df" stroke-width="3"/></g></svg>