<svg xmlns="http://www.w3.org/2000/svg" width="1000" height="1000" viewBox="0 0 1000 1000"><rect x="0" y="0" width="1000" height="1000" fill="#f7f0df"/><g data-cube-count="60"><polygon data-cell="0,0,4" data-face="top" points="430,230 502,266 430,302 358,266" fill="#99c5bf" stroke="#f7f0df" stroke-width="3"/><polygon data-cell="1,0,4" data-face="top" points="502,266 574,302 502,338 430,302" fill="#99c5bf" stroke="#f7f0df" stroke-width="3"/><polygon data-cell="0,1,4" data-face="top" points="358,266 430,302 358,338 286,302" fill="#99c5bf" stroke="#f7f0df" stroke-width="3"/><polygon data-cell="0,2,0" data-face="left" points="214,698 286,734 286,662 214,626" fill="#609f9c" stroke="#f7f0df" stroke-width="3"/><polygon data-cell="0,2,1" data-face="left" points="214,626 286,662 286,590 214,554" fill="#609f9c" stroke="#f7f0df" stroke-width="3"/><polygon data-cell="0,2,2" data-face="left" points="214,554 286,590 286,518 214,482" fill="#609f9c" stroke="#f7f0df" stroke-width="3"/><polygon data-cell="0,2,3" data-face="left" points="214,482 286,518 286,446 214,410" fill="#609f9c" stroke="#f7f0df" stroke-width="3"/><polygon data-cell="2,0,4" data-face="top" points="574,302 646,338 574,374 502,338" fill="#99c5bf" stroke="#f7f0df" stroke-width="3"/><polygon data-cell="1,1,4" data-face="top" points="430,302 502,338 430,374 358,338" fill="#99c5bf" stroke="#f7f0df" stroke-width="3"/><polygon data-cell="0,2,4" data-face="top" points="286,302 358,338 286,374 214,338" fill="#99c5bf" stroke="#f7f0df" stroke-width="3"/><polygon data-cell="0,2,4" data-face="left" points="214,410 286,446 286,374 214,338" fill="#609f9c" stroke="#f7f0df" stroke-width="3"/><polygon data-cell="3,0,0" data-face="right" points="718,734 646,770 646,698 718,662" fill="#397e80" stroke="#f7f0df" stroke-width="3"/><polygon data-cell="1,2,0" data-face="left" points="286,734 358,770 358,698 286,662" fill="#609f9c" stroke="#f7f0df" stroke-width="3"/><polygon data-cell="3,0,1" data-face="right" points="718,662 646,698 646,626 718,590" fill="#397e80" stroke="#f7f0df" stroke-width="3"/><polygon data-cell="1,2,1" data-face="left" points="286,662 358,698 358,626 286,590" fill="#609f9c" stroke="#f7f0df" stroke-width="3"/><polygon data-cell="3,0,2" data-face="right" points="718,590 646,626 646,554 718,518" fill="#397e80" stroke="#f7f0df" stroke-width="3"/><polygon data-cell="1,2,2" data-face="left" points="286,590 358,626 358,554 286,518" fill="#609f9c" stroke="#f7f0df" stroke-width="3"/><polygon data-cell="3,0,3" data-face="right" points="718,518 646,554 646,482 718,446" fill="#397e80" stroke="#f7f0df" stroke-width="3"/><polygon data-cell="1,2,3" data-face="left" points="286,518 358,554 358,482 286,446" fill="#609f9c" stroke="#f7f0df" stroke-width="3"/><polygon data-cell="3,0,4" data-face="top" points="646,338 718,374 646,410 574,374" fill="#99c5bf" stroke="#f7f0df" stroke-width="3"/><polygon data-cell="3,0,4" data-face="right" points="718,446 646,482 646,410 718,374" fill="#397e80" stroke="#f7f0df" stroke-width="3"/><polygon data-cell="2,1,4" data-face="top" points="502,338 574,374 502,410 430,374" fill="#99c5bf" stroke="#f7f0df" stroke-width="3"/><polygon data-cell="1,2,4" data-face="top" points="358,338 430,374 358,410 286,374" fill="#99c5bf" stroke="#f7f0df" stroke-width="3"/><polygon data-cell="1,2,4" data-face="left" points="286,446 358,482 358,410 286,374" fill="#609f9c" stroke="#f7f0df" stroke-width="3"/><polygon data-cell="3,1,0" data-face="right" points="646,770 574,806 574,734 646,698" fill="#397e80" stroke="#f7f0df" stroke-width="3"/><polygon data-cell="2,2,0" data-face="left" points="358,770 430,806 430,734 358,698" fill="#609f9c" stroke="#f7f0df" stroke-width="3"/><polygon data-cell="3,1,1" data-face="right" points="646,698 574,734 574,662 646,626" fill="#397e80" stroke="#f7f0df" stroke-width="3"/><polygon data-cell="2,2,1" data-face="left" points="358,698 430,734 430,662 358,626" fill="#609f9c" stroke="#f7f0df" stroke-width="3"/><polygon data-cell="3,1,2" data-face="right" points="646,626 574,662 574,590 646,554" fill="#397e80" stroke="#f7f0df" stroke-width="3"/><polygon data-cell="2,2,2" data-face="left" points="358,626 430,662 430,590 358,554" fill="#609f9c" stroke="#f7f0df" stroke-width="3"/><polygon data-cell="3,1,3" data-face="right" points="646,554 574,590 574,518 646,482" fill="#397e80" stroke="#f7f0df" stroke-width="3"/><polygon data-cell="2,2,3" data-face="left" points="358,554 430,590 430,518 358,482" fill="#609f9c" stroke="#f7f0df" stroke-width="3"/><polygon data-cell="3,1,4" data-face="top" points="574,374 646,410 574,446 502,410" fill="#99c5bf" stroke="#f7f0df" stroke-width="3"/><polygon data-cell="3,1,4" data-face="right" points="646,482 574,518 574,446 646,410" fill="#397e80" stroke="#f7f0df" stroke-width="3"/><polygon data-cell="2,2,4" data-face="top" points="430,374 502,410 430,446 358,410" fill="#99c5bf" stroke="#f7f0df" stroke-width="3"/><polygon data-cell="2,2,4" data-face="left" points="358,482 430,518 430,446 358,410" fill="#609f9c" stroke="#f7f0df" stroke-width="3"/><polygon data-cell="3,2,0" data-face="right" points="574,806 502,842 502,770 574,734" fill="#397e80" stroke="#f7f0df" stroke-width="3"/><polygon data-cell="3,2,0" data-face="left" points="430,806 502,842 502,770 430,734" fill="#609f9c" stroke="#f7f0df" stroke-width="3"/><polygon data-cell="3,2,1" data-face="right" points="574,734 502,770 502,698 574,662" fill="#397e80" stroke="#f7f0df" stroke-width="3"/><polygon data-cell="3,2,1" data-face="left" points="430,734 502,770 502,698 430,662" fill="#609f9c" stroke="#f7f0df" stroke-width="3"/><polygon data-cell="3,2,2" data-face="right" points="574,662 502,698 502,626 574,590" fill="#397e80" stroke="#f7f0df" stroke-width="3"/><polygon data-cell="3,2,2" data-face="left" points="430,662 502,698 502,626 430,590" fill="#609f9c" stroke="#f7f0df" stroke-width="3"/><polygon data-cell="3,2,3" data-face="right" points="574,590 502,626 502,554 574,518" fill="#397e80" stroke="#f7f0df" stroke-width="3"/><polygon data-cell="3,2,3" data-face="left" points="430,590 502,626 502,554 430,518" fill="#609f9c" stroke="#f7f0df" stroke-width="3"/><polygon data-cell="3,2,4" data-face="top" points="502,410 574,446 502,482 430,446" fill="#99c5bf" stroke="#f7f0df" stroke-width="3"/><polygon data-cell="3,2,4" data-face="right" points="574,518 502,554 502,482 574,446" fill="#397e80" stroke="#f7f0df" stroke-width="3"/><polygon data-cell="3,2,4" data-face="left" points="430,518 502,554 502,482 430,446" fill="#609f9c" stroke="#f7f0df" stroke-width="3"/></g><path d="M750 374H820V734H750" fill="none" stroke="#bc7355" stroke-width="12" /></svg>