<svg xmlns="http://www.w3.org/2000/svg" width="1000" height="1000" viewBox="0 0 1000 1000"><rect x="0" y="0" width="1000" height="1000" fill="#fffaf0" /><rect x="100" y="300" width="35" height="350" fill="#138f8a" stroke="#203849" stroke-width="2" data-cell="true" data-shaded="true"/><rect x="135" y="300" width="35" height="350" fill="#fff" stroke="#203849" stroke-width="2" data-cell="true" data-shaded="false"/><rect x="170" y="300" width="35" height="350" fill="#fff" stroke="#203849" stroke-width="2" data-cell="true" data-shaded="false"/><rect x="205" y="300" width="35" height="350" fill="#fff" stroke="#203849" stroke-width="2" data-cell="true" data-shaded="false"/><rect x="240" y="300" width="35" height="350" fill="#fff" stroke="#203849" stroke-width="2" data-cell="true" data-shaded="false"/><rect x="275" y="300" width="35" height="350" fill="#fff" stroke="#203849" stroke-width="2" data-cell="true" data-shaded="false"/><rect x="310" y="300" width="35" height="350" fill="#fff" stroke="#203849" stroke-width="2" data-cell="true" data-shaded="false"/><rect x="345" y="300" width="35" height="350" fill="#fff" stroke="#203849" stroke-width="2" data-cell="true" data-shaded="false"/><rect x="380" y="300" width="35" height="350" fill="#fff" stroke="#203849" stroke-width="2" data-cell="true" data-shaded="false"/><rect x="415" y="300" width="35" height="350" fill="#fff" stroke="#203849" stroke-width="2" data-cell="true" data-shaded="false"/><rect x="550" y="300" width="35" height="35" fill="#138f8a" stroke="#425c66" stroke-width="1" data-cell="true" data-shaded="true"/><rect x="585" y="300" width="35" height="35" fill="#138f8a" stroke="#425c66" stroke-width="1" data-cell="true" data-shaded="true"/><rect x="620" y="300" width="35" height="35" fill="#138f8a" stroke="#425c66" stroke-width="1" data-cell="true" data-shaded="true"/><rect x="655" y="300" width="35" height="35" fill="#138f8a" stroke="#425c66" stroke-width="1" data-cell="true" data-shaded="true"/><rect x="690" y="300" width="35" height="35" fill="#138f8a" stroke="#425c66" stroke-width="1" data-cell="true" data-shaded="true"/><rect x="725" y="300" width="35" height="35" fill="#138f8a" stroke="#425c66" stroke-width="1" data-cell="true" data-shaded="true"/><rect x="760" y="300" width="35" height="35" fill="#138f8a" stroke="#425c66" stroke-width="1" data-cell="true" data-shaded="true"/><rect x="795" y="300" width="35" height="35" fill="#138f8a" stroke="#425c66" stroke-width="1" data-cell="true" data-shaded="true"/><rect x="830" y="300" width="35" height="35" fill="#138f8a" stroke="#425c66" stroke-width="1" data-cell="true" data-shaded="true"/><rect x="865" y="300" width="35" height="35" fill="#138f8a" stroke="#425c66" stroke-width="1" data-cell="true" data-shaded="true"/><rect x="550" y="335" width="35" height="35" fill="#fff" stroke="#425c66" stroke-width="1" data-cell="true" data-shaded="false"/><rect x="585" y="335" width="35" height="35" fill="#fff" stroke="#425c66" stroke-width="1" data-cell="true" data-shaded="false"/><rect x="620" y="335" width="35" height="35" fill="#fff" stroke="#425c66" stroke-width="1" data-cell="true" data-shaded="false"/><rect x="655" y="335" width="35" height="35" fill="#fff" stroke="#425c66" stroke-width="1" data-cell="true" data-shaded="false"/><rect x="690" y="335" width="35" height="35" fill="#fff" stroke="#425c66" stroke-width="1" data-cell="true" data-shaded="false"/><rect x="725" y="335" width="35" height="35" fill="#fff" stroke="#425c66" stroke-width="1" data-cell="true" data-shaded="false"/><rect x="760" y="335" width="35" height="35" fill="#fff" stroke="#425c66" stroke-width="1" data-cell="true" data-shaded="false"/><rect x="795" y="335" width="35" height="35" fill="#fff" stroke="#425c66" stroke-width="1" data-cell="true" data-shaded="false"/><rect x="830" y="335" width="35" height="35" fill="#fff" stroke="#425c66" stroke-width="1" data-cell="true" data-shaded="false"/><rect x="865" y="335" width="35" height="35" fill="#fff" stroke="#425c66" stroke-width="1" data-cell="true" data-shaded="false"/><rect x="550" y="370" width="35" height="35" fill="#fff" stroke="#425c66" stroke-width="1" data-cell="true" data-shaded="false"/><rect x="585" y="370" width="35" height="35" fill="#fff" stroke="#425c66" stroke-width="1" data-cell="true" data-shaded="false"/><rect x="620" y="370" width="35" height="35" fill="#fff" stroke="#425c66" stroke-width="1" data-cell="true" data-shaded="false"/><rect x="655" y="370" width="35" height="35" fill="#fff" stroke="#425c66" stroke-width="1" data-cell="true" data-shaded="false"/><rect x="690" y="370" width="35" height="35" fill="#fff" stroke="#425c66" stroke-width="1" data-cell="true" data-shaded="false"/><rect x="725" y="370" width="35" height="35" fill="#fff" stroke="#425c66" stroke-width="1" data-cell="true" data-shaded="false"/><rect x="760" y="370" width="35" height="35" fill="#fff" stroke="#425c66" stroke-width="1" data-cell="true" data-shaded="false"/><rect x="795" y="370" width="35" height="35" fill="#fff" stroke="#425c66" stroke-width="1" data-cell="true" data-shaded="false"/><rect x="830" y="370" width="35" height="35" fill="#fff" stroke="#425c66" stroke-width="1" data-cell="true" data-shaded="false"/><rect x="865" y="370" width="35" height="35" fill="#fff" stroke="#425c66" stroke-width="1" data-cell="true" data-shaded="false"/><rect x="550" y="405" width="35" height="35" fill="#fff" stroke="#425c66" stroke-width="1" data-cell="true" data-shaded="false"/><rect x="585" y="405" width="35" height="35" fill="#fff" stroke="#425c66" stroke-width="1" data-cell="true" data-shaded="false"/><rect x="620" y="405" width="35" height="35" fill="#fff" stroke="#425c66" stroke-width="1" data-cell="true" data-shaded="false"/><rect x="655" y="405" width="35" height="35" fill="#fff" stroke="#425c66" stroke-width="1" data-cell="true" data-shaded="false"/><rect x="690" y="405" width="35" height="35" fill="#fff" stroke="#425c66" stroke-width="1" data-cell="true" data-shaded="false"/><rect x="725" y="405" width="35" height="35" fill="#fff" stroke="#425c66" stroke-width="1" data-cell="true" data-shaded="false"/><rect x="760" y="405" width="35" height="35" fill="#fff" stroke="#425c66" stroke-width="1" data-cell="true" data-shaded="false"/><rect x="795" y="405" width="35" height="35" fill="#fff" stroke="#425c66" stroke-width="1" data-cell="true" data-shaded="false"/><rect x="830" y="405" width="35" height="35" fill="#fff" stroke="#425c66" stroke-width="1" data-cell="true" data-shaded="false"/><rect x="865" y="405" width="35" height="35" fill="#fff" stroke="#425c66" stroke-width="1" data-cell="true" data-shaded="false"/><rect x="550" y="440" width="35" height="35" fill="#fff" stroke="#425c66" stroke-width="1" data-cell="true" data-shaded="false"/><rect x="585" y="440" width="35" height="35" fill="#fff" stroke="#425c66" stroke-width="1" data-cell="true" data-shaded="false"/><rect x="620" y="440" width="35" height="35" fill="#fff" stroke="#425c66" stroke-width="1" data-cell="true" data-shaded="false"/><rect x="655" y="440" width="35" height="35" fill="#fff" stroke="#425c66" stroke-width="1" data-cell="true" data-shaded="false"/><rect x="690" y="440" width="35" height="35" fill="#fff" stroke="#425c66" stroke-width="1" data-cell="true" data-shaded="false"/><rect x="725" y="440" width="35" height="35" fill="#fff" stroke="#425c66" stroke-width="1" data-cell="true" data-shaded="false"/><rect x="760" y="440" width="35" height="35" fill="#fff" stroke="#425c66" stroke-width="1" data-cell="true" data-shaded="false"/><rect x="795" y="440" width="35" height="35" fill="#fff" stroke="#425c66" stroke-width="1" data-cell="true" data-shaded="false"/><rect x="830" y="440" width="35" height="35" fill="#fff" stroke="#425c66" stroke-width="1" data-cell="true" data-shaded="false"/><rect x="865" y="440" width="35" height="35" fill="#fff" stroke="#425c66" stroke-width="1" data-cell="true" data-shaded="false"/><rect x="550" y="475" width="35" height="35" fill="#fff" stroke="#425c66" stroke-width="1" data-cell="true" data-shaded="false"/><rect x="585" y="475" width="35" height="35" fill="#fff" stroke="#425c66" stroke-width="1" data-cell="true" data-shaded="false"/><rect x="620" y="475" width="35" height="35" fill="#fff" stroke="#425c66" stroke-width="1" data-cell="true" data-shaded="false"/><rect x="655" y="475" width="35" height="35" fill="#fff" stroke="#425c66" stroke-width="1" data-cell="true" data-shaded="false"/><rect x="690" y="475" width="35" height="35" fill="#fff" stroke="#425c66" stroke-width="1" data-cell="true" data-shaded="false"/><rect x="725" y="475" width="35" height="35" fill="#fff" stroke="#425c66" stroke-width="1" data-cell="true" data-shaded="false"/><rect x="760" y="475" width="35" height="35" fill="#fff" stroke="#425c66" stroke-width="1" data-cell="true" data-shaded="false"/><rect x="795" y="475" width="35" height="35" fill="#fff" stroke="#425c66" stroke-width="1" data-cell="true" data-shaded="false"/><rect x="830" y="475" width="35" height="35" fill="#fff" stroke="#425c66" stroke-width="1" data-cell="true" data-shaded="false"/><rect x="865" y="475" width="35" height="35" fill="#fff" stroke="#425c66" stroke-width="1" data-cell="true" data-shaded="false"/><rect x="550" y="510" width="35" height="35" fill="#fff" stroke="#425c66" stroke-width="1" data-cell="true" data-shaded="false"/><rect x="585" y="510" width="35" height="35" fill="#fff" stroke="#425c66" stroke-width="1" data-cell="true" data-shaded="false"/><rect x="620" y="510" width="35" height="35" fill="#fff" stroke="#425c66" stroke-width="1" data-cell="true" data-shaded="false"/><rect x="655" y="510" width="35" height="35" fill="#fff" stroke="#425c66" stroke-width="1" data-cell="true" data-shaded="false"/><rect x="690" y="510" width="35" height="35" fill="#fff" stroke="#425c66" stroke-width="1" data-cell="true" data-shaded="false"/><rect x="725" y="510" width="35" height="35" fill="#fff" stroke="#425c66" stroke-width="1" data-cell="true" data-shaded="false"/><rect x="760" y="510" width="35" height="35" fill="#fff" stroke="#425c66" stroke-width="1" data-cell="true" data-shaded="false"/><rect x="795" y="510" width="35" height="35" fill="#fff" stroke="#425c66" stroke-width="1" data-cell="true" data-shaded="false"/><rect x="830" y="510" width="35" height="35" fill="#fff" stroke="#425c66" stroke-width="1" data-cell="true" data-shaded="false"/><rect x="865" y="510" width="35" height="35" fill="#fff" stroke="#425c66" stroke-width="1" data-cell="true" data-shaded="false"/><rect x="550" y="545" width="35" height="35" fill="#fff" stroke="#425c66" stroke-width="1" data-cell="true" data-shaded="false"/><rect x="585" y="545" width="35" height="35" fill="#fff" stroke="#425c66" stroke-width="1" data-cell="true" data-shaded="false"/><rect x="620" y="545" width="35" height="35" fill="#fff" stroke="#425c66" stroke-width="1" data-cell="true" data-shaded="false"/><rect x="655" y="545" width="35" height="35" fill="#fff" stroke="#425c66" stroke-width="1" data-cell="true" data-shaded="false"/><rect x="690" y="545" width="35" height="35" fill="#fff" stroke="#425c66" stroke-width="1" data-cell="true" data-shaded="false"/><rect x="725" y="545" width="35" height="35" fill="#fff" stroke="#425c66" stroke-width="1" data-cell="true" data-shaded="false"/><rect x="760" y="545" width="35" height="35" fill="#fff" stroke="#425c66" stroke-width="1" data-cell="true" data-shaded="false"/><rect x="795" y="545" width="35" height="35" fill="#fff" stroke="#425c66" stroke-width="1" data-cell="true" data-shaded="false"/><rect x="830" y="545" width="35" height="35" fill="#fff" stroke="#425c66" stroke-width="1" data-cell="true" data-shaded="false"/><rect x="865" y="545" width="35" height="35" fill="#fff" stroke="#425c66" stroke-width="1" data-cell="true" data-shaded="false"/><rect x="550" y="580" width="35" height="35" fill="#fff" stroke="#425c66" stroke-width="1" data-cell="true" data-shaded="false"/><rect x="585" y="580" width="35" height="35" fill="#fff" stroke="#425c66" stroke-width="1" data-cell="true" data-shaded="false"/><rect x="620" y="580" width="35" height="35" fill="#fff" stroke="#425c66" stroke-width="1" data-cell="true" data-shaded="false"/><rect x="655" y="580" width="35" height="35" fill="#fff" stroke="#425c66" stroke-width="1" data-cell="true" data-shaded="false"/><rect x="690" y="580" width="35" height="35" fill="#fff" stroke="#425c66" stroke-width="1" data-cell="true" data-shaded="false"/><rect x="725" y="580" width="35" height="35" fill="#fff" stroke="#425c66" stroke-width="1" data-cell="true" data-shaded="false"/><rect x="760" y="580" width="35" height="35" fill="#fff" stroke="#425c66" stroke-width="1" data-cell="true" data-shaded="false"/><rect x="795" y="580" width="35" height="35" fill="#fff" stroke="#425c66" stroke-width="1" data-cell="true" data-shaded="false"/><rect x="830" y="580" width="35" height="35" fill="#fff" stroke="#425c66" stroke-width="1" data-cell="true" data-shaded="false"/><rect x="865" y="580" width="35" height="35" fill="#fff" stroke="#425c66" stroke-width="1" data-cell="true" data-shaded="false"/><rect x="550" y="615" width="35" height="35" fill="#fff" stroke="#425c66" stroke-width="1" data-cell="true" data-shaded="false"/><rect x="585" y="615" width="35" height="35" fill="#fff" stroke="#425c66" stroke-width="1" data-cell="true" data-shaded="false"/><rect x="620" y="615" width="35" height="35" fill="#fff" stroke="#425c66" stroke-width="1" data-cell="true" data-shaded="false"/><rect x="655" y="615" width="35" height="35" fill="#fff" stroke="#425c66" stroke-width="1" data-cell="true" data-shaded="false"/><rect x="690" y="615" width="35" height="35" fill="#fff" stroke="#425c66" stroke-width="1" data-cell="true" data-shaded="false"/><rect x="725" y="615" width="35" height="35" fill="#fff" stroke="#425c66" stroke-width="1" data-cell="true" data-shaded="false"/><rect x="760" y="615" width="35" height="35" fill="#fff" stroke="#425c66" stroke-width="1" data-cell="true" data-shaded="false"/><rect x="795" y="615" width="35" height="35" fill="#fff" stroke="#425c66" stroke-width="1" data-cell="true" data-shaded="false"/><rect x="830" y="615" width="35" height="35" fill="#fff" stroke="#425c66" stroke-width="1" data-cell="true" data-shaded="false"/><rect x="865" y="615" width="35" height="35" fill="#fff" stroke="#425c66" stroke-width="1" data-cell="true" data-shaded="false"/></svg>