<svg xmlns="http://www.w3.org/2000/svg" width="1000" height="1000" viewBox="0 0 1000 1000"><rect x="0" y="0" width="1000" height="1000" fill="#fffaf0" /><rect x="100" y="280" width="80" height="150" fill="#138f8a" stroke="#203849" stroke-width="2" data-cell="true" data-shaded="true"/><rect x="180" y="280" width="80" height="150" fill="#138f8a" stroke="#203849" stroke-width="2" data-cell="true" data-shaded="true"/><rect x="260" y="280" width="80" height="150" fill="#138f8a" stroke="#203849" stroke-width="2" data-cell="true" data-shaded="true"/><rect x="340" y="280" width="80" height="150" fill="#138f8a" stroke="#203849" stroke-width="2" data-cell="true" data-shaded="true"/><rect x="420" y="280" width="80" height="150" fill="#138f8a" stroke="#203849" stroke-width="2" data-cell="true" data-shaded="true"/><rect x="500" y="280" width="80" height="150" fill="#fff" stroke="#203849" stroke-width="2" data-cell="true" data-shaded="false"/><rect x="580" y="280" width="80" height="150" fill="#fff" stroke="#203849" stroke-width="2" data-cell="true" data-shaded="false"/><rect x="660" y="280" width="80" height="150" fill="#fff" stroke="#203849" stroke-width="2" data-cell="true" data-shaded="false"/><rect x="740" y="280" width="80" height="150" fill="#fff" stroke="#203849" stroke-width="2" data-cell="true" data-shaded="false"/><rect x="820" y="280" width="80" height="150" fill="#fff" stroke="#203849" stroke-width="2" data-cell="true" data-shaded="false"/><rect x="100" y="570" width="40" height="150" fill="#138f8a" stroke="#203849" stroke-width="2" data-cell="true" data-shaded="true"/><rect x="140" y="570" width="40" height="150" fill="#138f8a" stroke="#203849" stroke-width="2" data-cell="true" data-shaded="true"/><rect x="180" y="570" width="40" height="150" fill="#138f8a" stroke="#203849" stroke-width="2" data-cell="true" data-shaded="true"/><rect x="220" y="570" width="40" height="150" fill="#138f8a" stroke="#203849" stroke-width="2" data-cell="true" data-shaded="true"/><rect x="260" y="570" width="40" height="150" fill="#138f8a" stroke="#203849" stroke-width="2" data-cell="true" data-shaded="true"/><rect x="300" y="570" width="40" height="150" fill="#138f8a" stroke="#203849" stroke-width="2" data-cell="true" data-shaded="true"/><rect x="340" y="570" width="40" height="150" fill="#138f8a" stroke="#203849" stroke-width="2" data-cell="true" data-shaded="true"/><rect x="380" y="570" width="40" height="150" fill="#138f8a" stroke="#203849" stroke-width="2" data-cell="true" data-shaded="true"/><rect x="420" y="570" width="40" height="150" fill="#138f8a" stroke="#203849" stroke-width="2" data-cell="true" data-shaded="true"/><rect x="460" y="570" width="40" height="150" fill="#138f8a" stroke="#203849" stroke-width="2" data-cell="true" data-shaded="true"/><rect x="500" y="570" width="40" height="150" fill="#fff" stroke="#203849" stroke-width="2" data-cell="true" data-shaded="false"/><rect x="540" y="570" width="40" height="150" fill="#fff" stroke="#203849" stroke-width="2" data-cell="true" data-shaded="false"/><rect x="580" y="570" width="40" height="150" fill="#fff" stroke="#203849" stroke-width="2" data-cell="true" data-shaded="false"/><rect x="620" y="570" width="40" height="150" fill="#fff" stroke="#203849" stroke-width="2" data-cell="true" data-shaded="false"/><rect x="660" y="570" width="40" height="150" fill="#fff" stroke="#203849" stroke-width="2" data-cell="true" data-shaded="false"/><rect x="700" y="570" width="40" height="150" fill="#fff" stroke="#203849" stroke-width="2" data-cell="true" data-shaded="false"/><rect x="740" y="570" width="40" height="150" fill="#fff" stroke="#203849" stroke-width="2" data-cell="true" data-shaded="false"/><rect x="780" y="570" width="40" height="150" fill="#fff" stroke="#203849" stroke-width="2" data-cell="true" data-shaded="false"/><rect x="820" y="570" width="40" height="150" fill="#fff" stroke="#203849" stroke-width="2" data-cell="true" data-shaded="false"/><rect x="860" y="570" width="40" height="150" fill="#fff" stroke="#203849" stroke-width="2" data-cell="true" data-shaded="false"/></svg>